<svg width="630" height="100" viewBox="0 0 630 100" fill="none" xmlns="http://www.w3.org/2000/svg">
<path d="M40.3232 11.6915L80.6458 34.2727V0H0V34.2727L40.3232 11.6915Z" fill="#1A99FF"/>
<path d="M40.3232 20.5654L0 43.1462V80.6459H80.6458V43.1462L40.3232 20.5654Z" fill="#1A99FF"/>
<path d="M157.744 54.5155L147.098 20.2559L136.356 54.5155H157.744ZM161.035 64.8701H133.066L128.13 80.6446H114.775L136.84 12.9011H157.647L179.809 80.6446H165.97L161.035 64.8701Z" fill="black"/>
<path d="M198.969 80.6449H186V9.41772H198.969V80.6449Z" fill="black"/>
<path d="M233.517 71.7409C241.743 71.7409 246.776 64.9667 246.776 55.289C246.776 45.6116 241.743 38.8363 233.517 38.8363C225.387 38.8363 220.355 45.6116 220.355 55.289C220.355 64.9667 225.388 71.7409 233.517 71.7409ZM233.517 28.7726C249.388 28.7726 259.55 38.8363 259.55 55.289C259.55 71.7409 249.389 81.8054 233.517 81.8054C217.645 81.8054 207.484 71.7409 207.484 55.289C207.484 38.8363 217.645 28.7726 233.517 28.7726Z" fill="black"/>
<path d="M291.388 71.7409C299.323 71.7409 304.162 65.0636 304.162 55.289C304.162 45.5137 299.323 38.8363 291.388 38.8363C283.354 38.8363 278.517 45.5137 278.517 55.289C278.517 65.0636 283.354 71.7409 291.388 71.7409ZM287.419 28.7726C294.485 28.7726 300.968 32.2566 304.55 39.2244V29.934H316.55V100H303.581V72.6126C299.904 78.7087 293.904 81.8054 287.323 81.8054C274.936 81.8054 265.645 72.0311 265.645 55.289C265.645 38.5472 274.936 28.7726 287.419 28.7726Z" fill="black"/>
<path d="M346.355 72.8061C354.484 72.8061 359.808 66.9029 359.808 59.5477V57.3221L348.195 58.4832C341.903 59.0641 338.129 61.4823 338.129 66.1285C338.129 69.9992 340.742 72.8058 346.355 72.8058V72.8061ZM346.549 50.7413L359.808 49.3854V46.8703C359.808 41.6442 356.807 37.9656 350.033 37.9656C344.516 37.9656 340.258 40.3851 339.871 45.6109H328.065C328.452 33.03 338.613 28.7722 350.033 28.7722C364.356 28.7722 372.775 35.5464 372.775 49.5789V80.6449H360.678V71.4511C357.389 77.8383 351.097 81.806 342.194 81.806C330.774 81.806 325.258 75.3219 325.258 66.8059C325.258 56.6446 333.387 51.9984 346.549 50.741V50.7413Z" fill="black"/>
<path d="M427.163 60.7089C427.163 54.9995 423.389 51.224 415.162 51.224H398.421V70.0965H414.486C423.196 70.0965 427.163 66.5148 427.163 60.7092L427.163 60.7089ZM398.421 41.1605H413.905C421.356 41.1605 425.13 37.5799 425.13 32.1603C425.13 26.8367 421.356 23.4495 413.711 23.4495H398.42V41.1602L398.421 41.1605ZM440.711 62.5478C440.711 74.8379 429.486 80.6449 415.744 80.6449H384.872V12.9005H415.066C428.034 12.9005 438.68 17.6422 438.68 29.9337C438.68 39.708 432.002 45.0306 418.647 45.8047C430.937 46.4822 440.711 51.224 440.711 62.5478Z" fill="#1A99FF"/>
<path d="M467.808 72.8061C475.936 72.8061 481.26 66.9029 481.26 59.5477V57.3221L469.647 58.4832C463.356 59.0641 459.581 61.4823 459.581 66.1285C459.581 69.9992 462.194 72.8058 467.808 72.8058V72.8061ZM468.001 50.7413L481.26 49.3854V46.8703C481.26 41.6442 478.259 37.9656 471.485 37.9656C465.969 37.9656 461.711 40.3851 461.323 45.6109H449.517C449.904 33.03 460.066 28.7722 471.485 28.7722C485.808 28.7722 494.227 35.5464 494.227 49.5789V80.6449H482.13V71.4511C478.841 77.8383 472.549 81.806 463.646 81.806C452.227 81.806 446.71 75.3219 446.71 66.8059C446.71 56.6446 454.84 51.9984 468.001 50.741V50.7413Z" fill="#1A99FF"/>
<path d="M504.678 29.934H516.776V38.8373C520.066 32.2566 526.259 28.7729 534.486 28.7729C546.1 28.7729 552.002 35.644 552.002 48.3222V80.6452H539.131V52.2892C539.131 44.0644 536.518 39.4182 529.452 39.4182C521.613 39.4182 517.647 45.2245 517.647 53.9343V80.6452H504.678V29.934H504.678Z" fill="#1A99FF"/>
<path d="M595.647 80.6449L580.066 60.1286H575.421V80.6449H562.453V9.41742H575.421V50.0632H580.163L594.873 29.934H610.163L589.357 54.0316L611.615 80.6449H595.647Z" fill="#1A99FF"/>
</svg>
